<?xml version="1.0" standalone="no"?>
<!DOCTYPE svg PUBLIC "-//W3C//DTD SVG 1.1//EN" "http://www.w3.org/Graphics/SVG/1.1/DTD/svg11.dtd" >
<svg xmlns="http://www.w3.org/2000/svg">
<metadata></metadata>
<defs>
<font id="MalayalamSangamMNRegular" horiz-adv-x="1147" >
<font-face units-per-em="2048" ascent="1638" descent="-410" />
<missing-glyph horiz-adv-x="614" />
<glyph horiz-adv-x="0" />
<glyph horiz-adv-x="0" />
<glyph horiz-adv-x="2048" />
<glyph unicode=" "  horiz-adv-x="614" />
<glyph unicode="&#x09;" horiz-adv-x="614" />
<glyph unicode="&#xa0;" horiz-adv-x="614" />
<glyph unicode="!" horiz-adv-x="377" d="M123 0v197h174v-197h-174zM123 838v587h174v-585l-39 -480h-96z" />
<glyph unicode="&#x22;" horiz-adv-x="623" d="M123 901v524h139v-524h-139zM403 901v524h136v-524h-136z" />
<glyph unicode="#" horiz-adv-x="1503" d="M127 473l18 100h295l62 310h-303l22 100h297l82 451h113l-80 -451h315l78 451h117l-86 -451h352l-12 -63l-11 -37h-344l-55 -310h346l-12 -63l-10 -37h-342l-90 -473h-115l88 473h-311l-88 -473h-111l84 473h-299zM555 573h313l62 310h-314z" />
<glyph unicode="$" horiz-adv-x="1155" d="M125 420h147q31 -173 155 -256q41 -27 91 -39v532q-175 76 -238.5 132t-94.5 114.5t-31 133t28.5 134.5t77.5 105q103 94 258 110v150h137v-150q229 -23 333 -198q36 -61 50 -141h-141q-59 177 -242 204v-491q197 -83 258.5 -129.5t90.5 -83.5q61 -80 61 -180t-36.5 -169 t-94.5 -115q-111 -87 -279 -103v-232h-137v236q-150 26 -258.5 146t-134.5 290zM299 1044q0 -39 16.5 -73.5t46.5 -62.5q49 -47 156 -95v436q-99 -16 -160 -73q-59 -54 -59 -132zM655 117q121 12 193 81q72 67 72 158q0 43 -23 78t-61 66q-64 52 -181 102v-485z" />
<glyph unicode="%" horiz-adv-x="1729" d="M129 1049q0 140 95.5 237.5t232.5 97.5t233 -98t96 -237t-96 -239q-96 -99 -233 -99t-233 99q-95 99 -95 239zM254 1048q0 -44 16 -83.5t44 -68.5q60 -65 143 -65q84 0 145 65q60 64 60 153q0 88 -60 153q-61 64 -145 64q-83 0 -143 -64t-60 -154zM377 0l840 1366h149 l-840 -1366h-149zM973 319q0 141 95 239q95 99 232 99t232 -99q96 -99 96 -239q0 -141 -96 -239t-232 -98t-232 98q-95 97 -95 239zM1098 320q0 -45 16 -84.5t43 -69.5q59 -64 143 -64t145 64q60 64 60 153q0 90 -60 153q-61 65 -145 65t-143 -64.5t-59 -152.5z" />
<glyph unicode="&#x26;" horiz-adv-x="1405" d="M127 346q0 176 215 351q62 50 127 98q-162 243 -162 391q0 116 87 199q96 92 247 92q157 0 252 -97q84 -84 84 -198q0 -161 -197 -324q-56 -47 -116 -92q136 -184 319 -395q59 113 76 274h141q-19 -221 -119 -387q77 -85 244 -258h-190q-92 92 -136 147 q-174 -188 -421 -188q-230 0 -350 125q-101 106 -101 262zM272 355.5q0 -73.5 26 -119t69 -74.5q84 -58 196 -58q207 0 340 152q-223 252 -354 426q-131 -96 -182 -150q-95 -103 -95 -176.5zM451 1171.5q0 -86.5 133 -294.5q119 86 163 136q84 94 84 169q0 116 -117 148 q-35 9 -73 9t-72 -10t-60 -29q-58 -42 -58 -128.5z" />
<glyph unicode="'" horiz-adv-x="338" d="M123 901v524h135v-524h-135z" />
<glyph unicode="(" horiz-adv-x="588" d="M123 669.5q0 127.5 19.5 253.5t59.5 247q81 250 238 454h109q-240 -447 -240 -954t240 -951h-109q-234 303 -297 697q-20 126 -20 253.5z" />
<glyph unicode=")" horiz-adv-x="549" d="M37 -281q246 435 246 949t-246 956h110q318 -412 318 -954q0 -395 -179 -736q-59 -113 -139 -215h-110z" />
<glyph unicode="*" horiz-adv-x="979" d="M123 1139l47 143l285 -121l-27 305h156l-23 -303l279 119l55 -147l-309 -72q55 -63 211 -225l-121 -93l-168 254l-174 -254l-121 93l213 225z" />
<glyph unicode="+" horiz-adv-x="1247" d="M127 707v114h455v443h114v-443h459v-114h-459v-443h-114v443h-455z" />
<glyph unicode="," horiz-adv-x="416" d="M117 -225q86 34 97 115q3 27 3 59v51h-74v197h193v-248q0 -91 -46.5 -153t-121.5 -91z" />
<glyph unicode="-" horiz-adv-x="666" d="M125 500v145h457v-145h-457z" />
<glyph unicode="." horiz-adv-x="395" d="M123 0v197h192v-197h-192z" />
<glyph unicode="/" horiz-adv-x="610" d="M0 -41l477 1507h133l-471 -1507h-139z" />
<glyph unicode="0" d="M94 696q0 326 120 509q122 188 353 188q232 0 355 -188q120 -184 120 -509q0 -161 -30.5 -289.5t-89.5 -218.5q-124 -188 -355 -188q-230 0 -353 188q-120 181 -120 508zM244 696q0 -291 94 -441q85 -136 229 -136q145 0 230 136q94 150 94 441q0 292 -94 442 q-86 138 -230 138q-143 0 -229 -138q-94 -150 -94 -442z" />
<glyph unicode="1" d="M211 872v146q226 0 367 138q78 76 106 163q14 41 14 74h144v-1393h-144v1120q-139 -197 -340 -235q-68 -13 -147 -13z" />
<glyph unicode="2" d="M115 975q20 191 149 305q128 113 328 113q198 0 318 -119q108 -106 108 -266q0 -211 -233 -381q-67 -49 -134.5 -95t-125 -88t-105.5 -88q-103 -99 -141 -211h739v-145h-901v137q57 208 308 395q69 52 130.5 94.5t117 84t98.5 85.5q95 96 95 177.5t-21.5 136t-58.5 90.5 q-75 74 -194 74q-138 0 -224 -80t-94 -219h-159z" />
<glyph unicode="3" d="M94 408h158q29 -163 134 -242q85 -66 202 -66q116 0 205 76q96 81 96 201q0 125 -85 205q-90 84 -231 84h-90v133h90q129 0 196 71q56 60 56 156q0 114 -68 180t-184 66q-121 0 -201 -86q-70 -77 -83 -189h-154q49 271 261 361q76 33 173.5 33t172 -26.5t126.5 -74.5 q107 -97 107 -252q0 -102 -52 -181t-149 -124q266 -95 266 -356q0 -187 -135 -296q-125 -101 -317 -101q-193 0 -323 112q-127 110 -171 316z" />
<glyph unicode="4" d="M76 344v170l624 860h154v-911h203v-119h-203v-344h-143v344h-635zM201 463h510v717z" />
<glyph unicode="5" d="M94 342h156q35 -113 120 -179q81 -63 166.5 -63t146.5 26.5t107 73.5q99 100 99 244t-105 244q-100 94 -231 94q-118 0 -218 -74q-32 -23 -56 -53h-144l92 719h736v-121h-621q-12 -112 -27 -218t-28 -220q117 92 301 92q192 0 324 -135q128 -133 128 -328 q0 -193 -120 -321q-133 -143 -369 -143q-264 0 -392 203q-43 68 -65 159z" />
<glyph unicode="6" d="M104 618q0 582 292 729q91 46 193.5 46t175 -27.5t123.5 -73.5q102 -91 126 -229h-140q-18 85 -87 144q-78 67 -165.5 67t-141.5 -27t-94 -73t-67.5 -106t-44.5 -126q-32 -123 -34 -264q56 111 170 169q90 46 186.5 46t177.5 -35.5t138 -97.5q118 -130 118 -332 q0 -187 -116 -314q-122 -134 -320 -134q-226 0 -356 162q-134 168 -134 476zM293 432q0 -139 91 -238q89 -94 211 -94q60 0 112.5 25.5t90.5 70.5q81 94 81 232q0 136 -79 232q-83 100 -208 100q-141 0 -226 -108q-73 -94 -73 -220z" />
<glyph unicode="7" d="M92 1253v121h950v-114q-244 -306 -370 -560q-155 -314 -209 -700h-156q102 720 561 1253h-776z" />
<glyph unicode="8" d="M109 370q0 69 16.5 120.5t45.5 96.5q57 89 159 146q-134 78 -176 209q-13 43 -13 104t33.5 126t91.5 114q123 105 299 105q178 0 301 -105q125 -106 125 -254q0 -136 -111 -242q-35 -32 -77 -57q158 -85 207 -243q16 -51 16 -120t-36 -143t-98 -129q-135 -118 -327 -118 t-323 118q-62 55 -97.5 129t-35.5 143zM258 386q0 -60 24 -112t66 -90q90 -84 217 -84q128 0 219 84q90 82 90 201q0 121 -90 203q-91 84 -219 84q-127 0 -217 -84q-90 -83 -90 -202zM293 1032q0 -98 80 -168q80 -71 192 -71q114 0 195.5 70.5t81.5 168.5q0 97 -82 169 q-80 71 -195 71q-112 0 -192 -71t-80 -169z" />
<glyph unicode="9" d="M104 946q0 188 116 314q122 133 321 133q227 0 356 -161q133 -166 133 -476q0 -389 -134 -588q-127 -188 -361 -188q-173 0 -289 102q-103 90 -125 229h137q18 -84 88 -144q78 -67 166 -67t142 27t93.5 73t66.5 106t44 126q31 119 33 262q-58 -108 -171 -166 q-92 -49 -186.5 -49t-175.5 35.5t-138 97.5q-116 129 -116 334zM254 946q0 -138 79 -232q83 -100 208 -100q142 0 227 108q74 96 74 220q0 139 -92 238q-88 94 -210 94q-61 0 -114 -25.5t-91 -70.5q-81 -94 -81 -232z" />
<glyph unicode=":" horiz-adv-x="395" d="M123 0v197h192v-197h-192zM123 819v199h192v-199h-192z" />
<glyph unicode=";" horiz-adv-x="416" d="M117 -225q86 34 97 115q3 27 3 59v51h-74v197h193v-248q0 -91 -46.5 -153t-121.5 -91zM143 819v199h193v-199h-193z" />
<glyph unicode="&#x3c;" horiz-adv-x="1165" d="M127 512v111l946 409v-133l-811 -332l811 -329v-136z" />
<glyph unicode="=" horiz-adv-x="1247" d="M127 461v114h1028v-114h-1028zM127 848v113h1028v-113h-1028z" />
<glyph unicode="&#x3e;" horiz-adv-x="1165" d="M127 102v134l813 327l-813 336v133l946 -409v-111z" />
<glyph unicode="?" horiz-adv-x="1034" d="M125 1024q8 203 123 326q118 125 295 125q204 0 310 -119q91 -101 91 -260q0 -145 -160 -307q-97 -98 -129 -162.5t-32 -124.5v-90h-177v98q0 106 92 208q39 44 84.5 85t85.5 85q91 102 91 208q0 179 -143 238q-48 20 -110.5 20t-112 -24t-85.5 -68q-76 -89 -84 -238 h-139zM446 0v180h177v-180h-177z" />
<glyph unicode="@" horiz-adv-x="1612" d="M133 512q0 343 225 558q139 133 333 182q95 24 207.5 24t227.5 -44t204 -123t142.5 -188.5t53.5 -242t-40.5 -234.5t-106.5 -171q-134 -140 -326 -140q-80 0 -110 71q-9 21 -11 44q-44 -62 -96.5 -88.5t-121 -26.5t-120.5 25.5t-88 67.5q-76 87 -76 190.5t31.5 195.5 t88.5 167q128 169 312 169q82 0 146 -56q47 -41 67 -91l41 117h125l-160 -556q-10 -34 -10 -59q0 -51 41 -51q84 0 170 76q72 64 106 188q17 66 17 164t-43.5 188t-115.5 154q-152 137 -361 137q-265 0 -445 -183q-182 -183 -182 -458q0 -253 183 -421q173 -158 415 -158 q230 0 384 137q49 43 85 96h125q-68 -172 -246 -266q-165 -86 -379 -86q-179 0 -338 89q-158 88 -253 243q-101 163 -101 360zM563 470q0 -57 9 -93t28 -65q45 -64 125 -64q128 0 211 120q27 39 43.5 91t26 86t14.5 55q6 32 6 62t-12.5 62t-34.5 55q-46 48 -99 48t-90 -17 t-70.5 -46t-62 -67t-49.5 -80q-45 -90 -45 -147z" />
<glyph unicode="A" horiz-adv-x="1251" d="M-2 0l522 1417h207l516 -1417h-160l-157 434h-609l-157 -434h-162zM367 567h507l-253 711z" />
<glyph unicode="B" horiz-adv-x="1241" d="M125 0v1417h551q179 0 288 -98q105 -93 105 -234q0 -220 -211 -331q295 -84 295 -355q0 -162 -125 -281q-123 -118 -287 -118h-616zM276 137h402q126 0 217 65q104 75 104 204q0 120 -99 198q-106 84 -277 84h-347v-551zM276 821h365q125 0 208 72q81 70 81 172 q0 150 -144 199q-50 16 -118 16h-392v-459z" />
<glyph unicode="C" horiz-adv-x="1446" d="M127 729q0 295 167 505q178 224 466 224q242 0 399 -126q141 -114 201 -322h-160q-56 159 -163 237t-277 78q-208 0 -346 -179q-135 -174 -135 -440q0 -141 42 -260.5t110 -197.5q135 -156 331 -156q175 0 298 122q109 107 142 271h154q-44 -230 -193 -373 q-161 -153 -401 -153q-292 0 -462 204q-173 207 -173 566z" />
<glyph unicode="D" horiz-adv-x="1352" d="M127 0v1417h526q274 0 447 -208q164 -199 164 -498q0 -305 -171 -507q-173 -204 -440 -204h-526zM276 137h316q230 0 371 151q147 156 147 421q0 284 -148 433q-137 138 -370 138h-316v-1143z" />
<glyph unicode="E" horiz-adv-x="1194" d="M125 0v1417h946v-137h-795v-479h748v-137h-748v-527h830v-137h-981z" />
<glyph unicode="F" horiz-adv-x="1135" d="M125 0v1417h924v-137h-773v-479h672v-137h-672v-664h-151z" />
<glyph unicode="G" horiz-adv-x="1466" d="M127 711q0 295 167 512q180 235 466 235q242 0 399 -126q141 -114 201 -322h-160q-56 159 -163 237t-277 78q-208 0 -346 -183q-135 -178 -135 -442q0 -135 39 -249.5t106 -192.5q136 -162 342 -162q173 0 317 158q89 99 129 226q19 63 21 128h-440v133h583v-741h-92 l-45 252q-73 -114 -203 -200q-137 -89 -275.5 -89t-257.5 57.5t-203 157.5q-173 209 -173 533z" />
<glyph unicode="H" horiz-adv-x="1286" d="M125 0v1417h151v-616h771v616h151v-1417h-151v668h-771v-668h-151z" />
<glyph unicode="I" horiz-adv-x="518" d="M201 0v1417h151v-1417h-151z" />
<glyph unicode="J" horiz-adv-x="983" d="M125 330v110h151v-92q0 -123 77 -194q66 -62 161 -62q84 0 150 56q84 71 84 204v1065h151v-1046q0 -207 -116 -316q-102 -96 -273 -96q-161 0 -268 94q-117 103 -117 277z" />
<glyph unicode="K" horiz-adv-x="1309" d="M125 0v1417h151v-725l723 725h199l-561 -557l594 -860h-191l-508 752l-256 -252v-500h-151z" />
<glyph unicode="L" horiz-adv-x="1075" d="M125 0v1417h151v-1280h713v-137h-864z" />
<glyph unicode="M" horiz-adv-x="1518" d="M127 0v1417h195l450 -1208l459 1208h196v-1417h-151v1163l-426 -1163h-137l-434 1163v-1163h-152z" />
<glyph unicode="N" horiz-adv-x="1288" d="M125 0v1417h203l721 -1224v1224h151v-1417h-203l-721 1225v-1225h-151z" />
<glyph unicode="O" horiz-adv-x="1489" d="M127 707q0 335 165 535q172 208 470 208q299 0 471 -208q166 -201 166 -536q0 -163 -42.5 -299.5t-123.5 -234.5q-171 -209 -471 -209q-299 0 -470 209q-165 200 -165 535zM279 707q0 -280 139 -449q133 -162 344 -162q210 0 344 162q141 169 141 449t-141 449 q-134 161 -344 161t-344 -161q-139 -168 -139 -449z" />
<glyph unicode="P" horiz-adv-x="1176" d="M125 0v1417h537q195 0 318 -129q110 -117 110 -274q0 -165 -112 -280q-121 -126 -316 -126h-386v-608h-151zM276 741h386q111 0 193 80q83 81 83 195q0 113 -79 188q-79 76 -197 76h-386v-539z" />
<glyph unicode="Q" horiz-adv-x="1513" d="M127 707q0 335 165 535q172 208 470 208q299 0 471 -208q166 -201 166 -534.5t-174 -543.5l205 -203l-95 -92l-207 205q-152 -111 -366 -111q-299 0 -470 209q-165 200 -165 535zM279 707q0 -280 139 -449q133 -162 344 -162q145 0 260 82l-145 146l94 96l147 -150 q129 173 129 437q0 279 -140 449q-134 161 -345 161q-210 0 -344 -161q-139 -168 -139 -449z" />
<glyph unicode="R" horiz-adv-x="1241" d="M125 0v1417h580q195 0 317 -129q111 -117 111 -274q0 -167 -113 -282q-37 -39 -86 -66q180 -46 180 -283v-215q0 -89 45 -168h-164q-30 48 -30 160v225q0 149 -139 203q-50 20 -121 20h-429v-608h-151zM276 741h429q112 0 194 80t82 195q0 112 -79 188q-77 76 -197 76 h-429v-539z" />
<glyph unicode="S" horiz-adv-x="1253" d="M125 442h156q10 -151 112.5 -249.5t261.5 -98.5q246 0 329 153q30 54 30 124.5t-32 114.5t-84 76q-68 43 -203 84t-220.5 72t-154.5 79q-154 108 -154 297q0 172 132 269q126 93 339 93q323 0 437 -230q43 -85 50 -192h-155q-12 138 -107 216q-89 73 -225 73 q-213 0 -292 -123q-28 -43 -28 -107t31.5 -109.5t83.5 -77.5q75 -46 210.5 -87.5t220.5 -72.5t152 -78q150 -105 150 -289q0 -202 -144 -314q-136 -106 -366 -106q-210 0 -361 130q-163 139 -169 353z" />
<glyph unicode="T" horiz-adv-x="1303" d="M125 1280v137h1089v-137h-469v-1280h-151v1280h-469z" />
<glyph unicode="U" horiz-adv-x="1264" d="M125 473v944h151v-954q0 -166 116 -273q106 -98 245 -98q152 0 263 93q124 104 124 274v958h152v-948q0 -233 -172 -379q-156 -131 -365 -131q-200 0 -349 131q-165 145 -165 383z" />
<glyph unicode="V" horiz-adv-x="1151" d="M0 1417h166l405 -1220l406 1220h166l-473 -1417h-189z" />
<glyph unicode="W" horiz-adv-x="1741" d="M2 1417h158l282 -1147l351 1147h143l346 -1136l287 1136h157l-358 -1417h-156l-348 1180l-348 -1180h-156z" />
<glyph unicode="X" horiz-adv-x="1120" d="M16 0l455 711l-451 706h168l367 -575l369 575h172l-455 -708q113 -174 227.5 -355t227.5 -354h-172l-367 578l-369 -578h-172z" />
<glyph unicode="Y" horiz-adv-x="1167" d="M-4 1417h174l414 -715l405 715h174l-508 -848v-569h-151v569z" />
<glyph unicode="Z" horiz-adv-x="1280" d="M125 0v150l903 1130h-903v137h1067v-176l-889 -1104h889v-137h-1067z" />
<glyph unicode="[" horiz-adv-x="459" d="M123 -287v1864h340v-98h-203v-1665h203v-101h-340z" />
<glyph unicode="\" horiz-adv-x="590" d="M0 1468h113l477 -1509h-119z" />
<glyph unicode="]" horiz-adv-x="416" d="M-6 -186h203v1665h-203v98h342v-1864h-342v101z" />
<glyph unicode="^" horiz-adv-x="899" d="M-4 924l346 510h203l350 -510h-123l-328 422l-327 -422h-121z" />
<glyph unicode="_" horiz-adv-x="1198" d="M127 -303h979v-117h-979v117z" />
<glyph unicode="`" horiz-adv-x="410" d="M123 934v256q0 105 55.5 172.5t151.5 89.5v-113q-78 -24 -88 -97q-4 -23 -4 -52v-27h92v-229h-207z" />
<glyph unicode="a" horiz-adv-x="1157" d="M127 266q0 166 211 247q85 33 194.5 62t156.5 49q104 44 104 111q0 168 -246 168q-149 0 -209 -86q-21 -30 -27 -72h-157q7 140 134 221q110 70 263 70q267 0 360 -162q33 -58 33 -139v-536q0 -55 46 -81q13 -7 30 -7t47 10v-123q-64 -18 -116.5 -18t-95 48t-48.5 148 q-126 -166 -283 -189q-47 -7 -103 -7t-111 20t-96 58q-87 81 -87 208zM276 274q0 -81 55 -125q47 -38 130.5 -38t173 56.5t158.5 174.5v233q-48 -52 -189 -95q-58 -17 -116.5 -33t-105.5 -39q-106 -50 -106 -134z" />
<glyph unicode="b" horiz-adv-x="1073" d="M125 0v1425h151v-555q81 113 210 154q40 12 77 12q201 0 315 -155q105 -145 105 -375q0 -231 -107 -374q-116 -155 -317 -155q-127 0 -225 100q-33 33 -58 77v-154h-151zM276 506q0 -170 72 -280q77 -115 205 -115q129 0 207 115q74 110 74 280t-74 281q-77 116 -207 116 q-125 0 -201 -111q-72 -106 -76 -270v-16z" />
<glyph unicode="c" horiz-adv-x="1075" d="M127 526q0 220 121 362q126 148 327 148q172 0 280 -94q98 -86 130 -237h-160q-43 156 -163 187q-40 11 -100 11t-115 -30.5t-93 -82.5q-78 -107 -78 -264q0 -167 78 -286q85 -129 215 -129q154 0 223 151q21 45 31 96h164q-22 -178 -133 -280q-111 -101 -291 -101 q-214 0 -331 176q-105 156 -105 373z" />
<glyph unicode="d" horiz-adv-x="1073" d="M125 506q0 231 106 375q114 155 314 155q113 0 227 -100q35 -30 62 -66v555h149v-1425h-149v154q-53 -88 -129 -132.5t-168 -44.5t-171 41.5t-132 113.5q-109 145 -109 374zM276 506q0 -169 74 -280q76 -115 205 -115q130 0 207 115q72 110 72 280v16q-4 165 -76 270 q-77 111 -203 111q-129 0 -205 -116q-74 -112 -74 -281z" />
<glyph unicode="e" horiz-adv-x="1133" d="M127 524q0 212 125 358q132 154 340 154q204 0 328 -141q122 -137 122 -354v-60h-757q2 -147 91 -257q91 -113 218 -113q220 0 291 204h137q-33 -156 -156 -247q-119 -88 -272 -88q-209 0 -340 162q-127 156 -127 382zM285 598h602q-4 134 -85 217q-84 88 -220 88 q-123 0 -210 -93q-85 -90 -87 -212z" />
<glyph unicode="f" horiz-adv-x="680" d="M78 885v133h174v250q0 87 58 142q60 56 141 56t145 -39v-118q-50 22 -78 22q-115 0 -115 -92v-221h179v-133h-179v-885h-151v885h-174z" />
<glyph unicode="g" horiz-adv-x="1100" d="M127 510q0 225 119 373q123 153 311 153t301 -164v146h152v-1043q0 -200 -132 -319q-121 -109 -298 -109q-307 0 -414 310h151q42 -93 106 -134.5t139 -41.5t125.5 21.5t88.5 59.5q82 82 82 205v178q-53 -83 -128.5 -125.5t-167 -42.5t-174 42t-140.5 115 q-121 149 -121 376zM276 510q0 -166 87 -282q88 -117 219 -117q128 0 204 115q72 111 72 280v16q-4 165 -75 270q-76 111 -201 111q-131 0 -219 -115q-87 -113 -87 -278z" />
<glyph unicode="h" horiz-adv-x="1032" d="M125 0v1425h151v-551q109 162 334 162q146 0 239 -87t93 -218v-731h-149v705q0 149 -137 187q-39 11 -86.5 11t-101 -22t-96.5 -61q-96 -87 -96 -202v-618h-151z" />
<glyph unicode="i" horiz-adv-x="434" d="M164 0v1018h149v-1018h-149zM164 1249v176h149v-176h-149z" />
<glyph unicode="j" horiz-adv-x="352" d="M-43 -295q33 -16 58.5 -16t46.5 12t34 33q25 39 25 106v1178h151v-1206q0 -187 -140 -240q-43 -16 -92.5 -16t-82.5 18v131zM121 1249v176h151v-176h-151z" />
<glyph unicode="k" horiz-adv-x="1032" d="M125 0v1425h151v-878l482 471h184l-373 -375l381 -643h-176l-311 535l-187 -187v-348h-151z" />
<glyph unicode="l" horiz-adv-x="434" d="M164 0v1425h149v-1425h-149z" />
<glyph unicode="m" horiz-adv-x="1616" d="M129 0v1018h150v-160q89 133 237 168q43 10 82 10q168 0 270 -186q82 141 241 178q46 10 102.5 10t115 -23.5t101.5 -64.5q90 -89 90 -221v-729h-150v686q0 116 -65 172q-52 45 -117.5 45t-113 -21t-85.5 -58q-86 -84 -86 -197v-627h-149v686q0 114 -65 172 q-50 45 -117.5 45t-119 -27.5t-89.5 -69.5q-82 -92 -82 -190v-616h-150z" />
<glyph unicode="n" horiz-adv-x="1030" d="M125 0v1018h151v-154q149 172 359 172q143 0 225 -82q80 -80 80 -223v-731h-149v713q0 149 -107 180q-35 10 -91 10t-116 -24.5t-105 -64.5q-96 -87 -96 -202v-612h-151z" />
<glyph unicode="o" horiz-adv-x="1143" d="M127 508q0 226 119 373q126 155 342 155q217 0 344 -155q121 -148 121 -373q0 -226 -121 -372q-128 -154 -344 -154q-215 0 -342 154q-119 145 -119 372zM276 508q0 -169 84 -278q87 -115 228 -115t228 115q85 111 85 278q0 166 -85 279q-87 116 -228 116 q-142 0 -228 -116q-84 -111 -84 -279z" />
<glyph unicode="p" horiz-adv-x="1106" d="M127 -418v1436h149v-154q78 126 222 164q42 12 82 12q202 0 322 -154q114 -148 114 -374q0 -229 -112 -375q-120 -155 -320 -155q-134 0 -244 98q-36 32 -64 74v-572h-149zM276 496q4 -161 86 -270q84 -111 211 -111q130 0 212 116q79 112 79 281q0 168 -79 280 q-82 115 -212 115q-129 0 -215 -115q-82 -112 -82 -280v-16z" />
<glyph unicode="q" horiz-adv-x="1106" d="M127 512q0 227 113 374q120 154 321 154q133 0 241 -101q36 -33 62 -75v154h152v-1436h-152v572q-80 -124 -225 -161q-43 -11 -82 -11q-201 0 -319 155q-111 147 -111 375zM276 512q0 -169 80 -281q82 -116 211 -116q128 0 212 111q81 107 85 270v16q0 167 -82 280 q-84 115 -215 115q-128 0 -211 -115q-80 -111 -80 -280z" />
<glyph unicode="r" horiz-adv-x="635" d="M125 0v1018h149l-6 -156q96 174 262 174q40 0 70 -12v-154q-48 17 -91 17t-89.5 -22.5t-79.5 -60.5q-66 -76 -66 -190v-614h-149z" />
<glyph unicode="s" horiz-adv-x="1010" d="M125 315h156q4 -204 235 -204q165 0 230 82q24 31 24 76.5t-26 76.5t-69 54.5t-97.5 42t-111.5 39t-111.5 44.5t-97.5 58q-95 74 -95 188q0 128 108 200q97 64 246 64q256 0 342 -154q30 -52 33 -124l-80 2h-72q-17 143 -223 143q-99 0 -151 -36.5t-52 -86.5t26 -79.5 t69 -52.5t97.5 -43t112 -40.5t112 -44.5t97.5 -56q95 -71 95 -164.5t-33 -152t-89 -95.5q-105 -72 -284 -72q-166 0 -271 83q-114 91 -120 252z" />
<glyph unicode="t" horiz-adv-x="623" d="M47 889v129h158v303h151v-303h158v-129h-158v-660q0 -118 113 -118q35 0 70 8v-123q-56 -16 -113 -16t-94 10.5t-66 33.5q-61 51 -61 152v713h-158z" />
<glyph unicode="u" horiz-adv-x="1030" d="M125 305v731h151v-712q0 -150 108 -181q34 -10 89.5 -10t115.5 24.5t105 64.5q97 88 97 202v612h149v-1018h-149v154q-149 -172 -361 -172q-143 0 -224 82q-81 83 -81 223z" />
<glyph unicode="v" horiz-adv-x="922" d="M-2 1018h162l293 -840l301 840h159l-374 -1018h-164z" />
<glyph unicode="w" horiz-adv-x="1391" d="M2 1018h154l219 -832l229 832h168l223 -832l226 832h153l-291 -1018h-159l-236 848l-235 -848h-158z" />
<glyph unicode="x" horiz-adv-x="926" d="M14 0l355 508l-353 510h181l262 -377l260 377h182l-352 -510l352 -508h-182l-260 377l-262 -377h-183z" />
<glyph unicode="y" horiz-adv-x="905" d="M-2 1018h164l289 -830l286 830h158l-438 -1243q-39 -110 -108 -169q-58 -50 -123.5 -50t-112.5 18v131q50 -20 83.5 -20t54 16.5t36.5 40.5q25 37 45 98l47 148z" />
<glyph unicode="z" horiz-adv-x="1030" d="M125 0v131l610 741h-610v146h815v-144l-618 -737h618v-137h-815z" />
<glyph unicode="{" horiz-adv-x="621" d="M125 567v133h45q77 0 112 71q23 49 23 128v477q0 86 58 142q59 57 140.5 57t145.5 -39v-119q-52 23 -78 23q-114 0 -114 -92v-504q0 -70 -49 -132q-51 -65 -125 -79q72 -18 123 -79q51 -62 51 -128v-504q0 -92 114 -92q22 0 78 20v-116q-64 -39 -121 -39t-97 15t-68 42 q-58 54 -58 142v475q0 129 -65 178q-26 20 -70 20h-45z" />
<glyph unicode="|" horiz-adv-x="371" d="M129 -281v1905h121v-1905h-121z" />
<glyph unicode="}" horiz-adv-x="584" d="M-25 -150q56 -20 78 -20q115 0 115 92v504q0 67 49 128q50 61 123 79q-74 14 -124 79q-48 63 -48 132v504q0 92 -115 92q-26 0 -78 -23v119q64 39 121 39t97.5 -15t68.5 -42q57 -56 57 -142v-477q0 -128 65 -179q27 -20 71 -20h45v-133h-45q-136 0 -136 -198v-475 q0 -87 -57 -142q-59 -57 -141 -57t-146 39v116z" />
<glyph unicode="~" horiz-adv-x="1266" d="M61 438q4 183 87 302q91 132 247 132q167 0 265 -129q28 -36 51 -68.5t42 -57t39 -41.5q42 -37 87 -37t79 22t60 61q57 83 63 209h117q-6 -199 -96 -313q-88 -112 -230 -112q-131 0 -214 108q-24 31 -45.5 62.5t-43.5 61.5t-47 53q-56 50 -120 50t-104.5 -29.5 t-67.5 -74.5q-52 -89 -54 -199h-115z" />
<glyph unicode="&#xa9;" horiz-adv-x="1579" d="M129 682q0 117 53 240t145 215t215 145t263 53t263 -53t215 -145t145 -215t53 -240t-24 -203.5t-68 -161.5t-106 -137t-137 -106q-157 -92 -341 -92q-280 0 -478 198t-198 502zM223 659q0 -120 45.5 -226.5t124.5 -185.5q171 -171 412 -171q240 0 411 171 q79 79 124.5 185.5t45.5 226.5q0 241 -170 411q-171 171 -411 171q-241 0 -412 -171q-170 -170 -170 -411zM459 657q0 177 93 283q95 109 263 109q208 0 299 -209l-88 -31q-70 145 -211 145q-192 0 -244 -178q-16 -54 -16 -120.5t16 -121.5t48 -94q67 -82 201.5 -82 t205.5 146l88 -31q-93 -209 -299 -209q-168 0 -263 109q-93 106 -93 284z" />
<glyph unicode="&#xad;" horiz-adv-x="666" d="M125 500v145h457v-145h-457z" />
<glyph unicode="&#xbc;" horiz-adv-x="1675" d="M129 1120v103q132 0 217 85q65 65 76 140h133v-830h-135v627q-64 -102 -199 -119q-43 -6 -92 -6zM547 -39l469 1487h135l-465 -1487h-139zM934 195v129l387 493h129v-512h127v-110h-127v-195h-135v195h-381zM1069 305h246v320z" />
<glyph unicode="&#xbd;" horiz-adv-x="1665" d="M129 1120v103q132 0 217 85q65 65 76 140h133v-830h-135v627q-64 -102 -199 -119q-43 -6 -92 -6zM481 -39l471 1487h135l-466 -1487h-140zM928 0q15 165 112 262q48 48 114 86t118 64.5t71 43t33 36.5q31 41 31 86q0 116 -150 116q-81 0 -121 -49.5t-40 -128.5h-133 q0 222 177 288q58 21 131 21t127.5 -21.5t91.5 -57.5q77 -73 77 -179q0 -104 -99 -183q-29 -22 -53.5 -39t-53.5 -32t-51 -27t-41 -21.5t-39 -20.5q-72 -41 -92 -64.5t-28 -40.5h457v-139h-639z" />
<glyph unicode="&#xbe;" horiz-adv-x="1686" d="M127 891h147q24 -130 115 -148q30 -6 66 -6t66.5 6.5t53.5 20.5q50 30 50 89.5t-45 95.5t-123 36h-84v123h82q99 0 124 71q7 20 7 40q0 96 -133 96q-76 0 -110.5 -36t-45.5 -101h-139q30 270 297 270q194 0 258 -132q20 -41 20 -91q0 -115 -104 -168q143 -61 143 -203 q0 -116 -94 -184q-87 -64 -223 -64q-225 0 -293 162q-23 53 -35 123zM588 -39l471 1487h135l-467 -1487h-139zM944 195v129l387 493h129v-512h127v-110h-127v-195h-135v195h-381zM1079 305h246v320z" />
<glyph unicode="&#x2000;" horiz-adv-x="812" />
<glyph unicode="&#x2001;" horiz-adv-x="1624" />
<glyph unicode="&#x2002;" horiz-adv-x="812" />
<glyph unicode="&#x2003;" horiz-adv-x="1624" />
<glyph unicode="&#x2004;" horiz-adv-x="541" />
<glyph unicode="&#x2005;" horiz-adv-x="406" />
<glyph unicode="&#x2006;" horiz-adv-x="270" />
<glyph unicode="&#x2007;" horiz-adv-x="270" />
<glyph unicode="&#x2008;" horiz-adv-x="203" />
<glyph unicode="&#x2009;" horiz-adv-x="324" />
<glyph unicode="&#x200a;" horiz-adv-x="90" />
<glyph unicode="&#x2010;" horiz-adv-x="666" d="M125 500v145h457v-145h-457z" />
<glyph unicode="&#x2011;" horiz-adv-x="666" d="M125 500v145h457v-145h-457z" />
<glyph unicode="&#x2012;" horiz-adv-x="666" d="M125 500v145h457v-145h-457z" />
<glyph unicode="&#x2013;" horiz-adv-x="1384" d="M127 500v145h1163v-145h-1163z" />
<glyph unicode="&#x2014;" horiz-adv-x="1634" d="M129 500v145h1407v-145h-1407z" />
<glyph unicode="&#x2018;" horiz-adv-x="410" d="M123 893v258q0 103 55.5 170.5t151.5 89.5v-113q-77 -21 -88 -96q-4 -23 -4 -51v-29h92v-229h-207z" />
<glyph unicode="&#x2019;" horiz-adv-x="410" d="M123 891v110q78 28 89 98q3 23 3 52v27h-92v231h207v-258q0 -103 -55.5 -171.5t-151.5 -88.5z" />
<glyph unicode="&#x201c;" horiz-adv-x="725" d="M125 934v256q0 105 55.5 172.5t151.5 89.5v-113q-78 -24 -88 -97q-4 -23 -4 -52v-27h92v-229h-207zM434 934v256q0 105 55.5 172.5t151.5 89.5v-113q-78 -24 -89 -97q-3 -23 -3 -52v-27h92v-229h-207z" />
<glyph unicode="&#x201d;" horiz-adv-x="725" d="M125 891v110q78 28 89 98q3 23 3 52v27h-92v231h207v-258q0 -155 -122 -227q-38 -23 -85 -33zM434 891v110q76 27 86 98q4 23 4 52v27h-90v231h207v-258q0 -155 -122 -227q-38 -23 -85 -33z" />
<glyph unicode="&#x2022;" horiz-adv-x="666" d="M133 602q0 93 65 158q67 67 158 67q92 0 158 -67q66 -65 66 -158q0 -91 -66 -156q-66 -67 -158 -67q-91 0 -158 67q-65 65 -65 156z" />
<glyph unicode="&#x202f;" horiz-adv-x="324" />
<glyph unicode="&#x205f;" horiz-adv-x="406" />
<glyph unicode="&#xe000;" horiz-adv-x="1020" d="M0 0v1020h1020v-1020h-1020z" />
</font>
</defs>
</svg>
